<svg width="25" height="20" viewBox="0 0 25 20" fill="none" xmlns="http://www.w3.org/2000/svg">
<path d="M3.98248 3.9319C3.98248 6.05792 6.12799 7.78745 8.76526 7.78745C11.4026 7.78745 13.5481 6.05792 13.5481 3.9319C13.5481 1.80588 11.4026 0.0762329 8.76526 0.0762329C6.12799 0.0762329 3.98248 1.80588 3.98248 3.9319Z" fill="black"/>
<path d="M16.5697 16.1197C16.7929 16.2996 17.0855 16.3896 17.3781 16.3896C17.6707 16.3896 17.9633 16.2996 18.1865 16.1196C18.6329 15.7597 18.6329 15.1761 18.1864 14.8161L16.7083 13.6247L18.1866 12.4329C18.633 12.073 18.633 11.4894 18.1865 11.1294C17.74 10.7696 17.0161 10.7696 16.5696 11.1295L14.283 12.9729C14.0686 13.1458 13.9482 13.3802 13.9482 13.6247C13.9482 13.8692 14.0686 14.1036 14.2831 14.2764L16.5697 16.1197Z" fill="black"/>
<path d="M1.14329 17.6185H10.7162C12.1831 19.1145 14.4533 20.0762 16.997 20.0762C21.4098 20.0762 25 17.1821 25 13.6246C25 10.0673 21.4098 7.17302 16.997 7.17302C14.3683 7.17302 12.0316 8.20012 10.5719 9.78254C9.98011 9.68251 9.37561 9.63078 8.76524 9.63078C3.93209 9.63078 0 12.8006 0 16.6968C0 17.2058 0.51189 17.6185 1.14329 17.6185ZM16.997 9.01634C20.149 9.01634 22.7134 11.0836 22.7134 13.6246C22.7134 16.1656 20.149 18.2329 16.997 18.2329C13.8449 18.2329 11.2805 16.1656 11.2805 13.6246C11.2805 11.0836 13.8448 9.01634 16.997 9.01634Z" fill="black"/>
</svg>
