<svg width="26" height="21" viewBox="0 0 26 21" fill="none" xmlns="http://www.w3.org/2000/svg">
<path d="M20.0895 13.3392L19.0716 13.3539L19.0584 12.4323C19.051 11.9234 18.5894 11.5173 18.0272 11.5254C17.4651 11.5335 17.0153 11.9526 17.0226 12.4616L17.0358 13.3831L16.018 13.3978C15.4558 13.4059 15.006 13.825 15.0133 14.334C15.0206 14.8429 15.4823 15.249 16.0445 15.2409L17.0623 15.2263L17.0756 16.1478C17.0829 16.6568 17.5446 17.0628 18.1067 17.0548C18.6689 17.0467 19.1187 16.6275 19.1114 16.1186L19.0981 15.197L20.116 15.1824C20.6781 15.1743 21.1279 14.7551 21.1206 14.2462C21.1133 13.7372 20.6516 13.3312 20.0895 13.3392Z" fill="black"/>
<path d="M17.9743 7.83915C15.6342 7.87279 13.5687 8.9295 12.2918 10.5302C11.771 10.4387 11.2322 10.3941 10.6808 10.402C10.0943 10.4104 9.52376 10.4779 8.97563 10.5974C6.39633 11.1595 4.31511 12.8807 3.43375 15.1071C3.12796 15.8797 2.96618 16.7128 2.97864 17.5795C2.98596 18.0884 3.44763 18.4945 4.00977 18.4864L12.5326 18.3639C13.8601 19.841 15.895 20.7736 18.1598 20.741C22.0887 20.6845 25.2434 17.7447 25.1922 14.1876C25.1411 10.6305 21.9032 7.78266 17.9743 7.83915ZM18.1333 18.8979C17.2109 18.9111 16.3427 18.6992 15.5903 18.3199C14.0534 17.5452 13.0021 16.069 12.9776 14.3632C12.9599 13.1339 13.4794 12.0087 14.3372 11.1691C15.2521 10.2735 16.5523 9.70309 18.0008 9.68227C20.8071 9.64192 23.1199 11.6762 23.1565 14.2169C23.193 16.7576 20.9396 18.8575 18.1333 18.8979Z" fill="black"/>
<path d="M2.26911 4.82349C2.29002 6.27747 3.55351 7.45408 5.13116 7.53881C4.61849 6.72878 4.31917 5.79326 4.30481 4.79423C4.29044 3.79519 4.56275 2.8514 5.05191 2.02702C3.47736 2.15701 2.24821 3.36952 2.26911 4.82349Z" fill="black"/>
<path d="M6.46716 9.47256C6.11538 9.41144 5.75441 9.38209 5.38899 9.38735C2.48456 9.4291 0.1524 11.6024 0.190204 14.232C0.197521 14.741 0.659194 15.147 1.22134 15.139L1.29089 15.138C2.04266 12.6551 3.95359 10.594 6.46716 9.47256Z" fill="black"/>
<path d="M7.09536 2.52519C6.60979 3.16203 6.32871 3.93506 6.34064 4.7649C6.35257 5.59473 6.65576 6.35936 7.15944 6.98198C7.94601 7.95424 9.223 8.57939 10.6543 8.55881C13.0023 8.52506 14.8876 6.76819 14.857 4.6424C14.8265 2.5166 12.8914 0.814663 10.5434 0.848419C9.11209 0.86912 7.85366 1.53072 7.09536 2.52519Z" fill="black"/>
</svg>
