<svg width="28" height="19" viewBox="0 0 28 19" fill="none" xmlns="http://www.w3.org/2000/svg">
<path d="M5.59051 0.600006H0.798644C0.359695 0.600006 0 0.945299 0 1.36667V18.2333C0 18.6547 0.359695 19 0.798644 19H5.59051C6.02946 19 6.38915 18.6547 6.38915 18.2333V1.36667C6.38915 0.945299 6.02946 0.600006 5.59051 0.600006ZM4.79186 5.20001H1.59729V3.66667H4.79186V5.20001Z" fill="black"/>
<path d="M13.577 0.600006H8.78509C8.34615 0.600006 7.98645 0.945299 7.98645 1.36667V18.2333C7.98645 18.6547 8.34615 19 8.78509 19H13.577C14.0159 19 14.3756 18.6547 14.3756 18.2333V1.36667C14.3756 0.945299 14.0159 0.600006 13.577 0.600006ZM12.7783 5.20001H9.58374V3.66667H12.7783V5.20001Z" fill="black"/>
<path d="M19.0942 1.78806L14.8145 3.85397C14.4243 4.04124 14.2658 4.50944 14.4609 4.88399L21.6426 18.5728C21.8377 18.9474 22.3254 19.0995 22.7156 18.9122L26.9953 16.8405C27.3855 16.6532 27.544 16.185 27.3489 15.8105L20.1611 2.1275C19.966 1.7471 19.4844 1.59493 19.0942 1.78806Z" fill="black"/>
<path d="M23.1607 18.2333C23.1607 18.6547 22.801 19 22.3621 19C21.9231 19 21.5634 18.6547 21.5634 18.2333C21.5634 17.812 21.9231 17.4667 22.3621 17.4667C22.801 17.4667 23.1607 17.812 23.1607 18.2333Z" fill="black"/>
</svg>
