<svg width="12" height="12" viewBox="0 0 12 12" fill="none" xmlns="http://www.w3.org/2000/svg">
<path d="M8.41 1.44122C6.48886 -0.480407 3.36261 -0.480407 1.44118 1.44122C-0.480394 3.36236 -0.480394 6.48875 1.44118 8.41003C3.2967 10.2655 6.27574 10.3287 8.20827 8.60046L8.59894 8.99128C8.50166 9.24028 8.55266 9.5337 8.75375 9.73481L10.8152 11.7963C11.0862 12.0674 11.5258 12.0674 11.7966 11.7963C12.0678 11.5254 12.0678 11.086 11.7966 10.8147L9.73533 8.75364C9.53407 8.55223 9.24053 8.50126 8.9915 8.59868L8.60083 8.20787C10.3294 6.27546 10.2656 3.29642 8.41 1.44122ZM2.03006 7.8213C0.433384 6.22481 0.433384 3.62654 2.03006 2.02986C3.62659 0.433192 6.22477 0.433192 7.82141 2.02986C9.41809 3.62654 9.41809 6.22478 7.82141 7.8213C6.22477 9.4178 3.62659 9.4178 2.03006 7.8213Z" fill="black"/>
</svg>
