<svg width="25" height="20" viewBox="0 0 25 20" fill="none" xmlns="http://www.w3.org/2000/svg">
<path d="M24.978 7.61176C24.9252 7.47575 24.7851 7.37657 24.6164 7.3559L16.5213 6.36818L12.9011 0.209643C12.8259 0.0811521 12.6702 0 12.5001 0C12.3301 0 12.1739 0.0811521 12.0992 0.209643L8.47852 6.36855L0.383402 7.35628C0.214698 7.37694 0.0750807 7.47575 0.0218293 7.61213C-0.0305272 7.74776 0.0128794 7.89729 0.135045 7.99686L5.99315 12.7908L4.60996 19.5603C4.58132 19.7012 4.65023 19.8435 4.78761 19.9277C4.92589 20.0126 5.10891 20.0235 5.25882 19.9563L12.5001 16.7605L19.7405 19.9563C19.8059 19.9852 19.8779 19.9995 19.9491 19.9995C20.0417 19.9995 20.1339 19.9754 20.2122 19.9277C20.35 19.8435 20.4189 19.7012 20.3898 19.5603L19.0071 12.7912L24.8652 7.99686C24.9869 7.89654 25.0308 7.74739 24.978 7.61176Z" fill="black"/>
</svg>
