<svg width="7" height="7" viewBox="0 0 7 7" fill="none" xmlns="http://www.w3.org/2000/svg">
<path d="M6.99383 2.66412C6.97905 2.61651 6.93983 2.5818 6.89259 2.57457L4.62596 2.22886L3.6123 0.073375C3.59125 0.0284032 3.54765 0 3.50003 0C3.45242 0 3.40869 0.0284032 3.38777 0.073375L2.37398 2.22899L0.107353 2.5747C0.0601154 2.58193 0.0210226 2.61651 0.0061122 2.66425C-0.00854762 2.71172 0.00360624 2.76405 0.0378125 2.7989L1.67808 4.47679L1.29079 6.84609C1.28277 6.8954 1.30206 6.94524 1.34053 6.9747C1.37925 7.00442 1.43049 7.00823 1.47247 6.98469L3.50003 5.86618L5.52735 6.98469C5.54564 6.99482 5.56581 6.99981 5.58574 6.99981C5.61167 6.99981 5.63748 6.9914 5.65941 6.9747C5.698 6.94524 5.7173 6.8954 5.70915 6.84609L5.32199 4.47692L6.96226 2.7989C6.99634 2.76379 7.00862 2.71159 6.99383 2.66412Z" fill="black"/>
</svg>
