<svg width="10" height="18" viewBox="0 0 10 18" fill="none" xmlns="http://www.w3.org/2000/svg">
<path d="M0 2C0 0.89543 0.89543 0 2 0C3.1046 0 4 0.89543 4 2C4 2.74028 3.5978 3.38663 3 3.73244V11.0396H4.7915C5.8961 11.0396 6.7915 10.1441 6.7915 9.0396V7.7838C6.1823 7.4411 5.7708 6.78837 5.7708 6.03955C5.7708 4.93498 6.6662 4.03955 7.7708 4.03955C8.8753 4.03955 9.7708 4.93498 9.7708 6.03955C9.7708 6.77123 9.3778 7.4111 8.7915 7.7598V9.0396C8.7915 11.2487 7.0006 13.0396 4.7915 13.0396H3V14.2676C3.5978 14.6134 4 15.2597 4 16C4 17.1046 3.1046 18 2 18C0.89543 18 0 17.1046 0 16C0 15.2597 0.4022 14.6134 1 14.2676V3.73244C0.4022 3.38663 0 2.74028 0 2Z" fill="black"/>
</svg>
